<svg xmlns="http://www.w3.org/2000/svg" xmlns:xlink="http://www.w3.org/1999/xlink" version="1.1" x="0px" y="0px" viewBox="0 0 100 125" enable-background="new 0 0 100 100" xml:space="preserve"><g><polygon points="70.279,43.944 68.774,42.44 62.278,48.936 60.38,48.936 65.372,43.944 63.868,42.44 57.371,48.936 55.475,48.936    60.467,43.944 58.962,42.44 52.466,48.936 33.794,48.936 38.786,43.944 37.282,42.44 29.721,50 37.282,57.56 38.786,56.056    33.794,51.064 52.466,51.064 58.962,57.56 60.467,56.056 55.475,51.064 57.371,51.064 63.868,57.56 65.372,56.056 60.38,51.064    62.278,51.064 68.774,57.56 70.279,56.056 64.223,50  "/></g></svg>